<svg xmlns="http://www.w3.org/2000/svg" width="120" height="114" viewBox="0 0 120 114">
    <path fill="#FF6565" fill-rule="nonzero" d="M118.222 65.607c-2.236-6.98-6.36-12.974-12.002-17.493 4.401-2.411 7.363-5.612 8.58-9.387 1.809-5.603-.555-11.213-5.382-12.77-3.279-1.058-6.094-.238-7.853.615-.93-1.72-2.735-4.031-6.014-5.09-2.461-.793-5.059-.413-7.314 1.072-2.076 1.367-3.68 3.549-4.518 6.145-1.096 3.399-.773 7.246.88 11.285-4.313-.183-8.6.397-12.781 1.736-.394.126-.784.26-1.17.397-2.83-6.433-7.377-11.84-13.31-15.78a37.148 37.148 0 0 0-20.015-6.174 22.993 22.993 0 0 0 1.39-3.748 1.758 1.758 0 1 0-3.395-.915c-.49 1.813-1.323 3.691-2.49 5.616l-.02.034c-.925 1.521-2.058 3.072-3.395 4.644a3.736 3.736 0 0 1-3.714 1.198c-7.997-1.972-13.232-5.635-14.742-10.314-1.223-3.79.117-7.377 3.116-8.345 3.13-1.01 5.654.58 6.352 1.09a1.952 1.952 0 0 0 1.745.282 1.952 1.952 0 0 0 1.253-1.249c.269-.823 1.388-3.588 4.518-4.597 3-.97 6.183 1.16 7.404 4.946l.05.161a1.759 1.759 0 0 0 3.367-1.013 12.993 12.993 0 0 0-.07-.223c-1.807-5.604-7.004-8.774-11.83-7.217-3.28 1.058-5.086 3.37-6.015 5.089-1.76-.853-4.576-1.673-7.854-.615-4.826 1.558-7.19 7.167-5.382 12.77 1.17 3.63 3.954 6.73 8.08 9.106A37.086 37.086 0 0 0 2.512 43.671a36.972 36.972 0 0 0-.733 24.732C4.117 75.65 8.55 81.9 14.6 86.48a1.755 1.755 0 0 0 2.463-.34 1.758 1.758 0 0 0-.34-2.463C11.25 79.534 7.24 73.88 5.125 67.324.422 52.749 6.406 36.63 19.372 28.647a39.077 39.077 0 0 0 4.463 1.492c-5.698 2.743-10.452 7.316-13.523 13.315-4.778 9.33-4.357 20.255 1.126 29.225 5.465 8.938 14.981 14.274 25.457 14.274 3.535 0 6.962-.601 10.217-1.786.23.992.503 1.979.817 2.96l.137.41a33.272 33.272 0 0 1-25.264-1.2 1.758 1.758 0 0 0-1.485 3.186 36.808 36.808 0 0 0 15.567 3.46 36.93 36.93 0 0 0 12.448-2.166c3.394 7.699 9.268 13.959 16.854 17.863 5.301 2.728 11.053 4.11 16.848 4.109 3.786 0 7.592-.59 11.302-1.778 9.389-3.008 17.044-9.49 21.555-18.255 4.51-8.763 5.339-18.76 2.33-28.149zM87.065 29.779c.593-1.838 1.696-3.36 3.106-4.29.683-.449 1.658-.897 2.829-.897.461 0 .954.07 1.471.237 3.13 1.01 4.25 3.774 4.518 4.598a1.95 1.95 0 0 0 1.252 1.247c.59.19 1.242.086 1.744-.28l.001-.001c.7-.511 3.224-2.1 6.353-1.09 3 .968 4.339 4.556 3.116 8.345-1.51 4.68-6.745 8.342-14.742 10.314a3.738 3.738 0 0 1-3.714-1.198c-5.336-6.274-7.443-12.306-5.934-16.985zM72.89 45.069c4.423-1.417 8.973-1.897 13.538-1.43a37.286 37.286 0 0 0 2.769 4.025c-.082-.017-.163-.036-.245-.052-5.346-1.04-10.957-.628-16.027 1.15a36.886 36.886 0 0 0-.947-3.388c.3-.105.605-.207.912-.305zM35.349 23.71c15.052-.721 28.672 8.674 33.329 23.107 4.296 13.312-.284 27.98-11.154 36.52a26.487 26.487 0 0 1-.7-4.008c6.724-6.043 10.404-14.84 9.926-23.777.025-.137.034-.278.025-.421a30.093 30.093 0 0 0-1.636-8.029 1.754 1.754 0 0 0-.25-.467C60.78 35.504 50.899 28.107 38.965 27.29a31.032 31.032 0 0 0-6.409.223 40.281 40.281 0 0 0 2.794-3.803zm21.48 50.6a26.316 26.316 0 0 1 2.81-9.507c.989-1.919 2.17-3.67 3.52-5.247-.52 5.418-2.74 10.594-6.33 14.754zm-8.532-9.8c-1.982 5.566-2.592 11.393-1.827 17.142a26.201 26.201 0 0 1-9.575 1.785c-9.242 0-17.637-4.707-22.457-12.593-4.84-7.917-5.213-17.557-.997-25.789 4.878-9.528 14.565-14.99 25.284-14.258 10.24.7 18.768 6.89 22.564 16.27a37.217 37.217 0 0 0-12.992 17.443zm64.467 27.637c-4.081 7.928-11.007 13.794-19.502 16.515-8.494 2.721-17.538 1.972-25.468-2.109-7.93-4.081-13.795-11.006-16.516-19.5-4.261-13.298.328-27.932 11.176-36.457.333 1.305.566 2.623.697 3.942-2.685 2.409-4.916 5.315-6.638 8.655-3.651 7.092-4.322 15.184-1.887 22.786.077.243.162.482.245.722.013.045.029.09.046.134 3.956 11.242 13.708 18.79 25.661 19.78.883.073 1.759.109 2.628.109 11.24 0 21.21-6.036 26.432-16.185 3.652-7.091 4.322-15.184 1.888-22.788a31.578 31.578 0 0 0-1.946-4.73 1.758 1.758 0 0 0-3.13 1.6 28.055 28.055 0 0 1 1.728 4.202c2.147 6.71 1.556 13.85-1.666 20.107-4.963 9.645-14.79 15.08-25.644 14.18-10.111-.836-18.438-6.993-22.183-16.241 5.95-4.355 10.547-10.525 13.02-17.516 1.962-5.543 2.564-11.34 1.804-17.06 10.025-3.803 21.754-1.194 28.932 6.569.346.374.818.564 1.29.564a1.758 1.758 0 0 0 1.29-2.951 28.849 28.849 0 0 0-6.621-5.318 39.733 39.733 0 0 0 4.206-1.369c5.828 4.19 10.063 10.009 12.268 16.89 2.721 8.495 1.972 17.54-2.11 25.469z"/>
</svg>
