<svg xmlns="http://www.w3.org/2000/svg" xmlns:xlink="http://www.w3.org/1999/xlink" width="151" height="166" viewBox="0 0 151 166">
    <defs>
        <path id="b" d="M769.94 324.753c2.666 1.5 4.457 3.583 5.373 6.25.916 2.666.916 5.332 0 7.999-.916 2.666-2.707 4.749-5.372 6.249l-87.951 51.993c-2.499 1.5-5.164 2-7.996 1.5-2.831-.5-5.205-1.834-7.12-4-1.916-2.166-2.874-4.75-2.874-7.749V283.009c0-3.333 1-6.04 2.998-8.124 2-2.083 4.415-3.333 7.246-3.75 2.832-.416 5.414.126 7.746 1.626l87.95 51.992z"/>
        <filter id="a" width="162.5%" height="154.7%" x="-31.2%" y="-19.5%" filterUnits="objectBoundingBox">
            <feOffset dy="10" in="SourceAlpha" result="shadowOffsetOuter1"/>
            <feGaussianBlur in="shadowOffsetOuter1" result="shadowBlurOuter1" stdDeviation="10"/>
            <feColorMatrix in="shadowBlurOuter1" values="0 0 0 0 0 0 0 0 0 0 0 0 0 0 0 0 0 0 0.2 0"/>
        </filter>
    </defs>
    <g fill="none" fill-rule="evenodd" transform="translate(-644 -262)">
        <use fill="#000" filter="url(#a)" xlink:href="#b"/>
        <use fill="#FFF" xlink:href="#b"/>
    </g>
</svg>
